<!DOCTYPE svg PUBLIC "-//W3C//DTD SVG 1.1//EN" "http://www.w3.org/Graphics/SVG/1.1/DTD/svg11.dtd">
<!-- Uploaded to: SVG Repo, www.svgrepo.com, Transformed by: SVG Repo Mixer Tools -->
<svg fill="#d2e3f2" version="1.1" id="Capa_1" xmlns="http://www.w3.org/2000/svg" xmlns:xlink="http://www.w3.org/1999/xlink" width="125px" height="125px" viewBox="0 0 37.979 37.979" xml:space="preserve">
<g id="SVGRepo_bgCarrier" stroke-width="0"/>
<g id="SVGRepo_tracerCarrier" stroke-linecap="round" stroke-linejoin="round"/>
<g id="SVGRepo_iconCarrier"> <g> <path d="M21.553,2.322C15.45,3.435,9.956,6.693,2.608,3.406c0.096,0.333,0.189,0.667,0.283,1h-1.75L1,3.906H0l8.988,31.75h1 l-4.01-14.167h1.75c0.109,0.39,0.221,0.778,0.33,1.168C15.405,25.942,20.9,22.684,27,21.571 C25.186,15.155,23.369,8.738,21.553,2.322z M9.796,5.831c2.07-0.046,4.032-0.473,5.971-0.983c0.521,1.833,1.039,3.667,1.559,5.5 c-1.938,0.51-3.901,0.937-5.973,0.983C10.834,9.497,10.314,7.664,9.796,5.831z M5.766,20.739L1.354,5.156h1.75 c1.472,5.194,2.941,10.389,4.412,15.583H5.766z M7.173,15.991c-0.508-1.792-1.017-3.583-1.522-5.375 c2.046,0.751,3.951,1.005,5.773,0.964c0.507,1.792,1.015,3.583,1.521,5.375C11.125,16.996,9.219,16.742,7.173,15.991z M20.651,22.098c-1.938,0.511-3.9,0.937-5.972,0.982c-0.519-1.834-1.038-3.667-1.558-5.5c2.069-0.046,4.032-0.473,5.973-0.983 C19.613,18.432,20.133,20.264,20.651,22.098z M24.039,14.635c-1.729,0.375-3.414,0.889-5.121,1.337 c-0.508-1.792-1.016-3.583-1.521-5.375c1.706-0.449,3.395-0.962,5.12-1.337C23.023,11.052,23.531,12.843,24.039,14.635z M23.227,5.446c0.096,0.333,0.189,0.667,0.283,1c0.787-0.118,1.584-0.195,2.398-0.213c0.52,1.833,1.037,3.667,1.557,5.5 c-0.813,0.018-1.611,0.095-2.396,0.213c0.591,2.083,1.181,4.167,1.771,6.25c0.785-0.118,1.584-0.195,2.396-0.213 c0.521,1.833,1.039,3.667,1.56,5.5c-2.07,0.045-4.033,0.473-5.974,0.981c-0.121-0.432-0.243-0.86-0.364-1.291 c-2.018,0.529-4.008,1.15-6.068,1.525c0.217,0.766,0.434,1.529,0.649,2.293c6.101-1.113,11.597-4.371,18.94-1.086 c-1.814-6.416-3.633-12.833-5.449-19.25C29.11,5.128,26.094,5.015,23.227,5.446z M34.833,18.322 c-2.046-0.751-3.95-1.005-5.772-0.964c-0.508-1.792-1.016-3.583-1.521-5.375c1.82-0.041,3.727,0.213,5.771,0.964 C33.817,14.739,34.326,16.53,34.833,18.322z"/> </g> </g>
</svg>